<svg id="visual" viewBox="0 0 900 600" width="900" height="600" xmlns="http://www.w3.org/2000/svg" xmlns:xlink="http://www.w3.org/1999/xlink" version="1.1"><rect x="0" y="0" width="900" height="600" fill="#73e8e7"></rect><path d="M0 392L21.5 397.8C43 403.7 86 415.3 128.8 418.8C171.7 422.3 214.3 417.7 257.2 411.2C300 404.7 343 396.3 385.8 389C428.7 381.7 471.3 375.3 514.2 370.8C557 366.3 600 363.7 642.8 374C685.7 384.3 728.3 407.7 771.2 408.7C814 409.7 857 388.3 878.5 377.7L900 367L900 601L878.5 601C857 601 814 601 771.2 601C728.3 601 685.7 601 642.8 601C600 601 557 601 514.2 601C471.3 601 428.7 601 385.8 601C343 601 300 601 257.2 601C214.3 601 171.7 601 128.8 601C86 601 43 601 21.5 601L0 601Z" fill="#00cdfa"></path><path d="M0 437L21.5 435.7C43 434.3 86 431.7 128.8 424.8C171.7 418 214.3 407 257.2 405.2C300 403.3 343 410.7 385.8 413C428.7 415.3 471.3 412.7 514.2 417.8C557 423 600 436 642.8 434.5C685.7 433 728.3 417 771.2 421.8C814 426.7 857 452.3 878.5 465.2L900 478L900 601L878.5 601C857 601 814 601 771.2 601C728.3 601 685.7 601 642.8 601C600 601 557 601 514.2 601C471.3 601 428.7 601 385.8 601C343 601 300 601 257.2 601C214.3 601 171.7 601 128.8 601C86 601 43 601 21.5 601L0 601Z" fill="#00b5ff"></path><path d="M0 445L21.5 456C43 467 86 489 128.8 497C171.7 505 214.3 499 257.2 493.2C300 487.3 343 481.7 385.8 473.8C428.7 466 471.3 456 514.2 461.8C557 467.7 600 489.3 642.8 493.2C685.7 497 728.3 483 771.2 473.2C814 463.3 857 457.7 878.5 454.8L900 452L900 601L878.5 601C857 601 814 601 771.2 601C728.3 601 685.7 601 642.8 601C600 601 557 601 514.2 601C471.3 601 428.7 601 385.8 601C343 601 300 601 257.2 601C214.3 601 171.7 601 128.8 601C86 601 43 601 21.5 601L0 601Z" fill="#009afc"></path><path d="M0 532L21.5 526.7C43 521.3 86 510.7 128.8 512.3C171.7 514 214.3 528 257.2 526.3C300 524.7 343 507.3 385.8 502.5C428.7 497.7 471.3 505.3 514.2 505.3C557 505.3 600 497.7 642.8 500C685.7 502.3 728.3 514.7 771.2 521.2C814 527.7 857 528.3 878.5 528.7L900 529L900 601L878.5 601C857 601 814 601 771.2 601C728.3 601 685.7 601 642.8 601C600 601 557 601 514.2 601C471.3 601 428.7 601 385.8 601C343 601 300 601 257.2 601C214.3 601 171.7 601 128.8 601C86 601 43 601 21.5 601L0 601Z" fill="#007cf1"></path><path d="M0 566L21.5 564.2C43 562.3 86 558.7 128.8 556C171.7 553.3 214.3 551.7 257.2 550.7C300 549.7 343 549.3 385.8 547.7C428.7 546 471.3 543 514.2 539.5C557 536 600 532 642.8 533.3C685.7 534.7 728.3 541.3 771.2 544C814 546.7 857 545.3 878.5 544.7L900 544L900 601L878.5 601C857 601 814 601 771.2 601C728.3 601 685.7 601 642.8 601C600 601 557 601 514.2 601C471.3 601 428.7 601 385.8 601C343 601 300 601 257.2 601C214.3 601 171.7 601 128.8 601C86 601 43 601 21.5 601L0 601Z" fill="#355be0"></path></svg>