<svg version="1.1" xmlns:xlink="http://www.w3.org/1999/xlink" xmlns="http://www.w3.org/2000/svg" viewBox="139.3 0 561.4 298.6013986013986" id="visual" style="max-height: 500px" width="561.4" height="298.6013986013986"><rect fill="#73e8e7" height="300" width="700" y="0" x="0"/><path fill="#73e8e7" d="M0 238L11.7 238.5C23.3 239 46.7 240 70 234.8C93.3 229.7 116.7 218.3 140 214.3C163.3 210.3 186.7 213.7 210 215.2C233.3 216.7 256.7 216.3 280 213.5C303.3 210.7 326.7 205.3 350 208.7C373.3 212 396.7 224 420 229.5C443.3 235 466.7 234 490 231.7C513.3 229.3 536.7 225.7 560 221.5C583.3 217.3 606.7 212.7 630 213.3C653.3 214 676.7 220 688.3 223L700 226L700 301L688.3 301C676.7 301 653.3 301 630 301C606.7 301 583.3 301 560 301C536.7 301 513.3 301 490 301C466.7 301 443.3 301 420 301C396.7 301 373.3 301 350 301C326.7 301 303.3 301 280 301C256.7 301 233.3 301 210 301C186.7 301 163.3 301 140 301C116.7 301 93.3 301 70 301C46.7 301 23.3 301 11.7 301L0 301Z"/><path fill="#4db1bf" d="M0 218L11.7 223.7C23.3 229.3 46.7 240.7 70 240.5C93.3 240.3 116.7 228.7 140 223.7C163.3 218.7 186.7 220.3 210 226.3C233.3 232.3 256.7 242.7 280 243.7C303.3 244.7 326.7 236.3 350 229.7C373.3 223 396.7 218 420 222.2C443.3 226.3 466.7 239.7 490 244.2C513.3 248.7 536.7 244.3 560 241.7C583.3 239 606.7 238 630 237.7C653.3 237.3 676.7 237.7 688.3 237.8L700 238L700 301L688.3 301C676.7 301 653.3 301 630 301C606.7 301 583.3 301 560 301C536.7 301 513.3 301 490 301C466.7 301 443.3 301 420 301C396.7 301 373.3 301 350 301C326.7 301 303.3 301 280 301C256.7 301 233.3 301 210 301C186.7 301 163.3 301 140 301C116.7 301 93.3 301 70 301C46.7 301 23.3 301 11.7 301L0 301Z"/><path fill="#317d92" d="M0 268L11.7 261.7C23.3 255.3 46.7 242.7 70 240.5C93.3 238.3 116.7 246.7 140 251.8C163.3 257 186.7 259 210 257.5C233.3 256 256.7 251 280 246C303.3 241 326.7 236 350 238.2C373.3 240.3 396.7 249.7 420 255.2C443.3 260.7 466.7 262.3 490 260.7C513.3 259 536.7 254 560 248.3C583.3 242.7 606.7 236.3 630 234.2C653.3 232 676.7 234 688.3 235L700 236L700 301L688.3 301C676.7 301 653.3 301 630 301C606.7 301 583.3 301 560 301C536.7 301 513.3 301 490 301C466.7 301 443.3 301 420 301C396.7 301 373.3 301 350 301C326.7 301 303.3 301 280 301C256.7 301 233.3 301 210 301C186.7 301 163.3 301 140 301C116.7 301 93.3 301 70 301C46.7 301 23.3 301 11.7 301L0 301Z"/><path fill="#1b4d62" d="M0 251L11.7 255.3C23.3 259.7 46.7 268.3 70 269.3C93.3 270.3 116.7 263.7 140 263C163.3 262.3 186.7 267.7 210 270.2C233.3 272.7 256.7 272.3 280 272.2C303.3 272 326.7 272 350 269.5C373.3 267 396.7 262 420 259C443.3 256 466.7 255 490 258.7C513.3 262.3 536.7 270.7 560 270.3C583.3 270 606.7 261 630 256.7C653.3 252.3 676.7 252.7 688.3 252.8L700 253L700 301L688.3 301C676.7 301 653.3 301 630 301C606.7 301 583.3 301 560 301C536.7 301 513.3 301 490 301C466.7 301 443.3 301 420 301C396.7 301 373.3 301 350 301C326.7 301 303.3 301 280 301C256.7 301 233.3 301 210 301C186.7 301 163.3 301 140 301C116.7 301 93.3 301 70 301C46.7 301 23.3 301 11.7 301L0 301Z"/><path fill="#072233" d="M0 286L11.7 286.7C23.3 287.3 46.7 288.7 70 286.2C93.3 283.7 116.7 277.3 140 276.8C163.3 276.3 186.7 281.7 210 285.3C233.3 289 256.7 291 280 289.8C303.3 288.7 326.7 284.3 350 282.7C373.3 281 396.7 282 420 281.8C443.3 281.7 466.7 280.3 490 281.2C513.3 282 536.7 285 560 286.2C583.3 287.3 606.7 286.7 630 286.3C653.3 286 676.7 286 688.3 286L700 286L700 301L688.3 301C676.7 301 653.3 301 630 301C606.7 301 583.3 301 560 301C536.7 301 513.3 301 490 301C466.7 301 443.3 301 420 301C396.7 301 373.3 301 350 301C326.7 301 303.3 301 280 301C256.7 301 233.3 301 210 301C186.7 301 163.3 301 140 301C116.7 301 93.3 301 70 301C46.7 301 23.3 301 11.7 301L0 301Z"/></svg>