<svg id="visual" viewBox="0 0 900 600" width="900" height="600" xmlns="http://www.w3.org/2000/svg" xmlns:xlink="http://www.w3.org/1999/xlink" version="1.1"><rect x="0" y="0" width="900" height="600" fill="#002233"></rect><path d="M0 468L16.7 461.3C33.3 454.7 66.7 441.3 100 424C133.3 406.7 166.7 385.3 200 394.8C233.3 404.3 266.7 444.7 300 450.7C333.3 456.7 366.7 428.3 400 410C433.3 391.7 466.7 383.3 500 382C533.3 380.7 566.7 386.3 600 393.8C633.3 401.3 666.7 410.7 700 425.8C733.3 441 766.7 462 800 467.3C833.3 472.7 866.7 462.3 883.3 457.2L900 452L900 601L883.3 601C866.7 601 833.3 601 800 601C766.7 601 733.3 601 700 601C666.7 601 633.3 601 600 601C566.7 601 533.3 601 500 601C466.7 601 433.3 601 400 601C366.7 601 333.3 601 300 601C266.7 601 233.3 601 200 601C166.7 601 133.3 601 100 601C66.7 601 33.3 601 16.7 601L0 601Z" fill="#0066FF" stroke-linecap="round" stroke-linejoin="miter"></path></svg>