<svg id="visual" viewBox="0 0 900 600" width="900" height="600" xmlns="http://www.w3.org/2000/svg" xmlns:xlink="http://www.w3.org/1999/xlink" version="1.1"><rect x="0" y="0" width="900" height="600" fill="#002233"></rect><path d="M0 384L18.8 381.3C37.7 378.7 75.3 373.3 112.8 365C150.3 356.7 187.7 345.3 225.2 360.7C262.7 376 300.3 418 337.8 418C375.3 418 412.7 376 450.2 374.7C487.7 373.3 525.3 412.7 562.8 426.8C600.3 441 637.7 430 675.2 409.5C712.7 389 750.3 359 787.8 348.8C825.3 338.7 862.7 348.3 881.3 353.2L900 358L900 601L881.3 601C862.7 601 825.3 601 787.8 601C750.3 601 712.7 601 675.2 601C637.7 601 600.3 601 562.8 601C525.3 601 487.7 601 450.2 601C412.7 601 375.3 601 337.8 601C300.3 601 262.7 601 225.2 601C187.7 601 150.3 601 112.8 601C75.3 601 37.7 601 18.8 601L0 601Z" fill="#001122" stroke-linecap="round" stroke-linejoin="miter"></path></svg>