<svg id="visual" viewBox="0 0 900 600" width="900" height="600" xmlns="http://www.w3.org/2000/svg" xmlns:xlink="http://www.w3.org/1999/xlink" version="1.1"><rect x="0" y="0" width="900" height="600" fill="#73e8e7"></rect><path d="M0 314L16.7 315C33.3 316 66.7 318 100 335.3C133.3 352.7 166.7 385.3 200 393.7C233.3 402 266.7 386 300 370.7C333.3 355.3 366.7 340.7 400 349.8C433.3 359 466.7 392 500 400C533.3 408 566.7 391 600 378.2C633.3 365.3 666.7 356.7 700 363.7C733.3 370.7 766.7 393.3 800 407.7C833.3 422 866.7 428 883.3 431L900 434L900 601L883.3 601C866.7 601 833.3 601 800 601C766.7 601 733.3 601 700 601C666.7 601 633.3 601 600 601C566.7 601 533.3 601 500 601C466.7 601 433.3 601 400 601C366.7 601 333.3 601 300 601C266.7 601 233.3 601 200 601C166.7 601 133.3 601 100 601C66.7 601 33.3 601 16.7 601L0 601Z" fill="#73e8e7"></path><path d="M0 420L16.7 412.2C33.3 404.3 66.7 388.7 100 380.2C133.3 371.7 166.7 370.3 200 375.8C233.3 381.3 266.7 393.7 300 398.2C333.3 402.7 366.7 399.3 400 412C433.3 424.7 466.7 453.3 500 464.7C533.3 476 566.7 470 600 461.2C633.3 452.3 666.7 440.7 700 433.7C733.3 426.7 766.7 424.3 800 413.7C833.3 403 866.7 384 883.3 374.5L900 365L900 601L883.3 601C866.7 601 833.3 601 800 601C766.7 601 733.3 601 700 601C666.7 601 633.3 601 600 601C566.7 601 533.3 601 500 601C466.7 601 433.3 601 400 601C366.7 601 333.3 601 300 601C266.7 601 233.3 601 200 601C166.7 601 133.3 601 100 601C66.7 601 33.3 601 16.7 601L0 601Z" fill="#0ecdf4"></path><path d="M0 413L16.7 422C33.3 431 66.7 449 100 457.2C133.3 465.3 166.7 463.7 200 467.5C233.3 471.3 266.7 480.7 300 477.3C333.3 474 366.7 458 400 450C433.3 442 466.7 442 500 453.3C533.3 464.7 566.7 487.3 600 484C633.3 480.7 666.7 451.3 700 451.5C733.3 451.7 766.7 481.3 800 486C833.3 490.7 866.7 470.3 883.3 460.2L900 450L900 601L883.3 601C866.7 601 833.3 601 800 601C766.7 601 733.3 601 700 601C666.7 601 633.3 601 600 601C566.7 601 533.3 601 500 601C466.7 601 433.3 601 400 601C366.7 601 333.3 601 300 601C266.7 601 233.3 601 200 601C166.7 601 133.3 601 100 601C66.7 601 33.3 601 16.7 601L0 601Z" fill="#00adf9"></path><path d="M0 516L16.7 518.5C33.3 521 66.7 526 100 520.2C133.3 514.3 166.7 497.7 200 485.8C233.3 474 266.7 467 300 468.8C333.3 470.7 366.7 481.3 400 490.7C433.3 500 466.7 508 500 503.8C533.3 499.7 566.7 483.3 600 475.5C633.3 467.7 666.7 468.3 700 477.2C733.3 486 766.7 503 800 505C833.3 507 866.7 494 883.3 487.5L900 481L900 601L883.3 601C866.7 601 833.3 601 800 601C766.7 601 733.3 601 700 601C666.7 601 633.3 601 600 601C566.7 601 533.3 601 500 601C466.7 601 433.3 601 400 601C366.7 601 333.3 601 300 601C266.7 601 233.3 601 200 601C166.7 601 133.3 601 100 601C66.7 601 33.3 601 16.7 601L0 601Z" fill="#0087f3"></path><path d="M0 556L16.7 553.8C33.3 551.7 66.7 547.3 100 542.3C133.3 537.3 166.7 531.7 200 530.2C233.3 528.7 266.7 531.3 300 537.3C333.3 543.3 366.7 552.7 400 550C433.3 547.3 466.7 532.7 500 531.2C533.3 529.7 566.7 541.3 600 544.3C633.3 547.3 666.7 541.7 700 543.7C733.3 545.7 766.7 555.3 800 553.5C833.3 551.7 866.7 538.3 883.3 531.7L900 525L900 601L883.3 601C866.7 601 833.3 601 800 601C766.7 601 733.3 601 700 601C666.7 601 633.3 601 600 601C566.7 601 533.3 601 500 601C466.7 601 433.3 601 400 601C366.7 601 333.3 601 300 601C266.7 601 233.3 601 200 601C166.7 601 133.3 601 100 601C66.7 601 33.3 601 16.7 601L0 601Z" fill="#355be0"></path></svg>