<svg id="visual" viewBox="0 0 900 600" width="900" height="600" xmlns="http://www.w3.org/2000/svg" xmlns:xlink="http://www.w3.org/1999/xlink" version="1.1"><rect x="0" y="0" width="900" height="600" fill="#355be0"></rect><path d="M0 445L16.7 448C33.3 451 66.7 457 100 457.7C133.3 458.3 166.7 453.7 200 448.8C233.3 444 266.7 439 300 434.5C333.3 430 366.7 426 400 428.2C433.3 430.3 466.7 438.7 500 445.7C533.3 452.7 566.7 458.3 600 459.7C633.3 461 666.7 458 700 454.3C733.3 450.7 766.7 446.3 800 446.3C833.3 446.3 866.7 450.7 883.3 452.8L900 455L900 601L883.3 601C866.7 601 833.3 601 800 601C766.7 601 733.3 601 700 601C666.7 601 633.3 601 600 601C566.7 601 533.3 601 500 601C466.7 601 433.3 601 400 601C366.7 601 333.3 601 300 601C266.7 601 233.3 601 200 601C166.7 601 133.3 601 100 601C66.7 601 33.3 601 16.7 601L0 601Z" fill="#355be0"></path><path d="M0 442L16.7 448.2C33.3 454.3 66.7 466.7 100 476.8C133.3 487 166.7 495 200 493C233.3 491 266.7 479 300 476.3C333.3 473.7 366.7 480.3 400 483C433.3 485.7 466.7 484.3 500 486.5C533.3 488.7 566.7 494.3 600 492C633.3 489.7 666.7 479.3 700 475.5C733.3 471.7 766.7 474.3 800 469.2C833.3 464 866.7 451 883.3 444.5L900 438L900 601L883.3 601C866.7 601 833.3 601 800 601C766.7 601 733.3 601 700 601C666.7 601 633.3 601 600 601C566.7 601 533.3 601 500 601C466.7 601 433.3 601 400 601C366.7 601 333.3 601 300 601C266.7 601 233.3 601 200 601C166.7 601 133.3 601 100 601C66.7 601 33.3 601 16.7 601L0 601Z" fill="#1353be"></path><path d="M0 485L16.7 482.3C33.3 479.7 66.7 474.3 100 479.8C133.3 485.3 166.7 501.7 200 511.2C233.3 520.7 266.7 523.3 300 522.3C333.3 521.3 366.7 516.7 400 515.8C433.3 515 466.7 518 500 515.5C533.3 513 566.7 505 600 506.7C633.3 508.3 666.7 519.7 700 522.3C733.3 525 766.7 519 800 515.2C833.3 511.3 866.7 509.7 883.3 508.8L900 508L900 601L883.3 601C866.7 601 833.3 601 800 601C766.7 601 733.3 601 700 601C666.7 601 633.3 601 600 601C566.7 601 533.3 601 500 601C466.7 601 433.3 601 400 601C366.7 601 333.3 601 300 601C266.7 601 233.3 601 200 601C166.7 601 133.3 601 100 601C66.7 601 33.3 601 16.7 601L0 601Z" fill="#00499b"></path><path d="M0 548L16.7 544.8C33.3 541.7 66.7 535.3 100 529.8C133.3 524.3 166.7 519.7 200 516.2C233.3 512.7 266.7 510.3 300 515.3C333.3 520.3 366.7 532.7 400 538.7C433.3 544.7 466.7 544.3 500 536C533.3 527.7 566.7 511.3 600 511C633.3 510.7 666.7 526.3 700 534C733.3 541.7 766.7 541.3 800 539.2C833.3 537 866.7 533 883.3 531L900 529L900 601L883.3 601C866.7 601 833.3 601 800 601C766.7 601 733.3 601 700 601C666.7 601 633.3 601 600 601C566.7 601 533.3 601 500 601C466.7 601 433.3 601 400 601C366.7 601 333.3 601 300 601C266.7 601 233.3 601 200 601C166.7 601 133.3 601 100 601C66.7 601 33.3 601 16.7 601L0 601Z" fill="#003e79"></path><path d="M0 542L16.7 543.2C33.3 544.3 66.7 546.7 100 546.2C133.3 545.7 166.7 542.3 200 542C233.3 541.7 266.7 544.3 300 545.7C333.3 547 366.7 547 400 542.8C433.3 538.7 466.7 530.3 500 531.3C533.3 532.3 566.7 542.7 600 545.2C633.3 547.7 666.7 542.3 700 537.5C733.3 532.7 766.7 528.3 800 528.8C833.3 529.3 866.7 534.7 883.3 537.3L900 540L900 601L883.3 601C866.7 601 833.3 601 800 601C766.7 601 733.3 601 700 601C666.7 601 633.3 601 600 601C566.7 601 533.3 601 500 601C466.7 601 433.3 601 400 601C366.7 601 333.3 601 300 601C266.7 601 233.3 601 200 601C166.7 601 133.3 601 100 601C66.7 601 33.3 601 16.7 601L0 601Z" fill="#003155"></path><path d="M0 569L16.7 568.3C33.3 567.7 66.7 566.3 100 567.2C133.3 568 166.7 571 200 568.7C233.3 566.3 266.7 558.7 300 555.3C333.3 552 366.7 553 400 556.2C433.3 559.3 466.7 564.7 500 564.8C533.3 565 566.7 560 600 560.5C633.3 561 666.7 567 700 570.3C733.3 573.7 766.7 574.3 800 571.2C833.3 568 866.7 561 883.3 557.5L900 554L900 601L883.3 601C866.7 601 833.3 601 800 601C766.7 601 733.3 601 700 601C666.7 601 633.3 601 600 601C566.7 601 533.3 601 500 601C466.7 601 433.3 601 400 601C366.7 601 333.3 601 300 601C266.7 601 233.3 601 200 601C166.7 601 133.3 601 100 601C66.7 601 33.3 601 16.7 601L0 601Z" fill="#072233"></path></svg>